<svg width="160" height="186" viewBox="0 0 160 186" fill="none" xmlns="http://www.w3.org/2000/svg">
<g clip-path="url(#clip0_28_183)">
<path fill-rule="evenodd" clip-rule="evenodd" d="M117.814 101.459C129.423 101.459 139.939 106.177 147.562 113.796C155.211 121.412 159.929 131.947 159.929 143.57C159.929 155.196 155.211 165.731 147.591 173.347L147.113 173.789C139.526 181.147 129.194 185.684 117.814 185.684C106.188 185.684 95.6563 180.966 88.0406 173.347C80.4213 165.731 75.7033 155.196 75.7033 143.57C75.7033 131.943 80.4213 121.412 88.0406 113.796C95.6563 106.177 106.188 101.459 117.814 101.459ZM88.1639 13.8097V33.4581C88.5229 38.1472 90.1585 41.8317 93.0307 44.2832C96.0044 46.8254 100.451 48.2506 106.336 48.3558L120.088 48.3413L88.1639 13.8097ZM121.241 57.5055L106.264 57.4909C98.1078 57.364 91.6816 55.17 87.0796 51.2389C82.2817 47.1373 79.58 41.3204 79.0324 34.1109L78.9925 33.4799V9.17143H22.7998C19.05 9.17143 15.6375 10.7054 13.1715 13.1715C10.7054 15.6375 9.17143 19.05 9.17143 22.7998V144.828C9.17143 148.563 10.7127 151.976 13.1823 154.445C15.6484 156.912 19.0645 158.453 22.7998 158.453H66.1039C67.025 161.64 68.2327 164.708 69.7014 167.624H22.7998C16.5332 167.624 10.8251 165.057 6.69452 160.93C2.56756 156.799 0 151.095 0 144.828V22.7998C0 16.5405 2.56756 10.8396 6.6909 6.71266C10.8396 2.56756 16.5405 0 22.7998 0H85.8575C87.348 0 88.6716 0.710795 89.5094 1.81325L129.18 44.7293C129.992 45.6105 130.391 46.7202 130.391 47.8299L130.402 91.2464C127.435 90.532 124.375 90.0678 121.241 89.872V57.5055ZM37.9187 77.2663C35.3874 77.2663 33.3348 75.2137 33.3348 72.6824C33.3348 70.1474 35.3874 68.0948 37.9187 68.0948H92.494C95.0253 68.0948 97.0815 70.1474 97.0815 72.6824C97.0815 75.2137 95.0253 77.2663 92.494 77.2663H37.9187ZM37.9187 103.486C35.3874 103.486 33.3348 101.433 33.3348 98.8984C33.3348 96.3671 35.3874 94.3145 37.9187 94.3145H89.6036C90.9491 94.3145 92.1603 94.8947 93.0017 95.8195C89.0046 97.9031 85.284 100.479 81.9263 103.486H37.9187ZM37.9187 129.706C35.3874 129.706 33.3348 127.653 33.3348 125.118C33.3348 122.587 35.3874 120.534 37.9187 120.534H69.1792C67.7938 123.453 66.6588 126.521 65.8102 129.706H37.9187ZM133.952 146.761C135.243 146.71 136.161 146.279 136.687 145.474C138.13 143.319 136.164 141.191 134.804 139.693L120.284 124.929C118.717 123.384 116.904 123.366 115.337 124.929L100.465 140.095C99.1921 141.532 97.6146 143.49 98.9455 145.474C99.4859 146.279 100.396 146.71 101.687 146.761H108.846V157.891C108.846 160.009 110.59 161.767 112.726 161.767H122.902C125.042 161.767 126.786 160.023 126.786 157.891V146.761H133.952Z" fill="#315685"/>
</g>
<defs>
<clipPath id="clip0_28_183">
<rect width="159.929" height="185.684" fill="white"/>
</clipPath>
</defs>
</svg>
